<svg width="24" height="24" viewBox="0 0 24 24" fill="none" xmlns="http://www.w3.org/2000/svg">
<path d="M12.0001 24C18.6169 24 24 18.6168 24 11.9999C24 5.38325 18.6169 0 12.0001 0C5.38324 0 0 5.38325 0 11.9999C0 18.6168 5.38324 24 12.0001 24ZM12.0001 1.6427C17.7111 1.6427 22.3573 6.28892 22.3574 11.9999C22.3574 17.711 17.7112 22.3572 12.0001 22.3573C6.28904 22.3572 1.64284 17.711 1.64284 11.9998C1.64284 6.28903 6.28904 1.6427 12.0001 1.6427Z" fill="black"/>
<path d="M10.3882 17.1396C10.709 17.4603 11.2291 17.4602 11.5497 17.1396C11.8706 16.8188 11.8706 16.2988 11.5496 15.9779L8.39338 12.8219L17.5332 12.821C17.9868 12.8209 18.3545 12.4532 18.3545 11.9994C18.3544 11.5458 17.9867 11.1783 17.5331 11.1783L8.39294 11.1791L11.5499 8.02242C11.8707 7.70165 11.8707 7.18147 11.5499 6.86081C11.3895 6.70048 11.1793 6.62021 10.9691 6.62021C10.7589 6.62021 10.5488 6.70048 10.3883 6.8607L5.82929 11.4195C5.6752 11.5735 5.58868 11.7823 5.58868 12.0003C5.58879 12.2182 5.67531 12.4269 5.8294 12.5812L10.3882 17.1396Z" fill="black"/>
</svg>
